<svg aria-hidden="true" width="48" height="48" viewBox="0 0 48 48" fill="none" xmlns="http://www.w3.org/2000/svg">
<path d="M17.7308 23.5962L21.1154 29.7308H10.9615L8.53457 25.3318C7.94313 24.2599 7.9767 22.9521 8.62236 21.9119L11.3846 17.4615H21.1154L17.7308 23.5962Z" fill="#2684FC"/>
<path d="M27.8846 17.4615L31.2692 23.5962L36.3462 14.9231L33.9361 10.7054C33.3334 9.65082 32.212 9 30.9974 9H25.7692L21.1154 17.4615H27.8846Z" fill="#2684FC"/>
<path d="M21.1154 17.4615L25.7692 9H21.3722H18.1852C16.9708 9 15.8494 9.65065 15.2468 10.705L11.3846 17.4615H21.1154Z" fill="#0066DA"/>
<path d="M27.8846 29.7308H21.1154L25.9808 38.1709H31.1993C32.4155 38.1709 33.5382 37.5183 34.1402 36.4615L36.7692 31.8462L31.2692 23.5962L27.8846 29.7308Z" fill="#2684FC"/>
<path d="M25.9808 38.1923H17.6555C16.4266 38.1923 15.2942 37.5261 14.6971 36.4519L10.9615 29.7308H21.1154L25.9808 38.1923Z" fill="#0066DA"/>
<path d="M31.2692 23.5962L36.3461 14.9231L40.4431 21.9221C41.0501 22.959 41.0619 24.24 40.4741 25.2879L36.5577 32.2692L31.2692 23.5962Z" fill="#0066DA"/>
</svg>
