<svg xmlns="http://www.w3.org/2000/svg" width="64" height="64" viewBox="0 0 64 64" fill="none">
<path d="M49.88 12H38.7339L34.237 19.2561L31.5615 26.4465L38.7339 27.3659L46.1822 26.4794L51.7119 15.6057C52.5293 14.0028 51.5095 12 49.88 12Z" fill="#1967D2"/>
<path d="M12.2913 15.6146L16.9248 24.6348C17.4925 25.7391 18.5333 26.4197 19.6608 26.4227L31.5639 26.4495L38.7362 12H14.1205C12.4858 12 11.4687 14.0118 12.2913 15.6146Z" fill="#4285F4"/>
<path d="M33.923 50.7937C33.1161 52.3876 31.0976 52.4055 30.2698 50.8265L25.6573 42.0332C25.0738 40.9229 25.0607 39.5439 25.6205 38.4186L31.5602 26.4495L46.1809 26.4823L33.923 50.7937Z" fill="#4285F4"/>
</svg>