<svg aria-hidden="true" width="48" height="48" viewBox="0 0 48 48" fill="none" xmlns="http://www.w3.org/2000/svg">
<mask id="mask0_14564_894" style="mask-type:alpha" maskUnits="userSpaceOnUse" x="0" y="0" width="48" height="48">
<path d="M48 0H0V48H48V0Z" fill="white"/>
</mask>
<g mask="url(#mask0_14564_894)">
<path d="M13.4545 8.45454H34.7273C36.0834 8.45454 37.1818 9.55295 37.1818 10.9091V39.5455C37.1818 40.9016 36.0834 42 34.7273 42H13.4545C12.0984 42 11 40.9016 11 39.5455V10.9091C11 9.55295 12.0984 8.45454 13.4545 8.45454Z" fill="#FBBC04"/>
<path d="M28.1818 38.7273H15.0909C14.6389 38.7273 14.2727 38.3611 14.2727 37.9091V12.5455C14.2727 12.0934 14.6389 11.7273 15.0909 11.7273H33.0909C33.5429 11.7273 33.9091 12.0934 33.9091 12.5455V33" fill="#4285F4"/>
<path d="M29 33H33.9091L28.1818 38.7273V33.8182C28.1818 33.3661 28.548 33 29 33Z" fill="#1967D2"/>
<path d="M17.5455 30.5455V28.9091H30.6364V30.5455H17.5455ZM17.5455 33.8182V32.1818H24.0909V33.8182H17.5455ZM17.5455 27.2727V25.6364H30.6364V27.2727H17.5455ZM19.7955 20.5105L20.9532 19.3527L23.2666 21.6682L29.0511 15.8836L30.2089 17.0414L23.2666 23.9816L19.7955 20.5105Z" fill="#F1F3F4"/>
<path d="M24.0909 6C20.54 6 16.7273 7.92273 16.7273 10.2955V13.3636H31.4546V10.2955C31.4546 7.92273 27.6418 6 24.0909 6Z" fill="#174EA6"/>
<path d="M24.0909 10.9091C24.7687 10.9091 25.3182 10.3596 25.3182 9.68182C25.3182 9.00401 24.7687 8.45454 24.0909 8.45454C23.4131 8.45454 22.8636 9.00401 22.8636 9.68182C22.8636 10.3596 23.4131 10.9091 24.0909 10.9091Z" fill="white"/>
</g>
</svg>
