<svg aria-hidden="true" width="48" height="48" xmlns="http://www.w3.org/2000/svg"><g fill="none" fill-rule="evenodd"><path d="M0 0h48v48H0z"/><g fill-rule="nonzero"><path fill="#FFF" d="M33.184 15.816H15.816v17.368h17.368z"/><path d="M19.378 29.29c-.649-.44-1.098-1.08-1.343-1.926l1.506-.621c.137.52.376.925.717 1.211.338.287.75.428 1.233.428.493 0 .916-.15 1.27-.45.354-.3.532-.681.532-1.144 0-.473-.187-.86-.56-1.16-.374-.299-.843-.448-1.403-.448h-.87v-1.492h.781c.482 0 .888-.13 1.218-.39.33-.261.495-.617.495-1.071 0-.404-.147-.725-.443-.966-.295-.241-.668-.363-1.122-.363-.443 0-.795.117-1.055.354-.26.237-.45.528-.57.87l-1.49-.62c.197-.56.56-1.055 1.091-1.483.532-.428 1.212-.643 2.037-.643.61 0 1.16.118 1.646.354.486.237.868.565 1.144.982.275.419.412.887.412 1.409 0 .531-.128.98-.384 1.35-.256.369-.571.651-.944.849v.089c.492.206.894.52 1.211.944.315.424.473.93.473 1.52s-.15 1.118-.45 1.58c-.299.463-.713.828-1.239 1.093-.527.264-1.12.399-1.778.399a3.68 3.68 0 01-2.115-.656zM28.634 21.812l-1.655 1.196-.827-1.254 2.968-2.141h1.138v10.098h-1.624z" fill="#4285F4"/><path fill="#34A853" d="M33.184 33.184H15.816V41h17.368z"/><path d="M33.184 8H10.605A2.605 2.605 0 008 10.605v22.58h7.816v-17.37h17.368V8z" fill="#4285F4"/><path d="M8 33.184v5.21A2.605 2.605 0 0010.605 41h5.21v-7.816H8z" fill="#188038"/><path fill="#FBBC04" d="M41 15.816h-7.816v17.368H41z"/><path d="M41 15.816v-5.21A2.605 2.605 0 0038.395 8h-5.21v7.816H41z" fill="#1967D2"/><path fill="#EA4335" d="M33.184 41L41 33.184h-7.816z"/></g></g></svg>
