<svg width="29" height="28" viewBox="0 0 29 28" fill="none" xmlns="http://www.w3.org/2000/svg">
<path d="M9.31729 14.9534V8.75732H6.61025C5.81258 8.75732 5.1665 9.4034 5.1665 10.2011V23.0156C5.1665 23.6592 5.94372 23.9805 6.3985 23.5257L9.37744 20.548H17.8595C18.6571 20.548 19.3032 19.9019 19.3032 19.1042V16.3972H10.761C9.96336 16.3972 9.31729 15.7511 9.31729 14.9534Z" fill="#00AC47"/>
<path d="M22.0104 4.66663H10.7611C9.96346 4.66663 9.31738 5.3127 9.31738 6.11038V8.75725H17.8596C18.6572 8.75725 19.3033 9.40333 19.3033 10.201V16.3971H22.0104C22.808 16.3971 23.4541 15.751 23.4541 14.9533V6.11038C23.4541 5.3127 22.808 4.66663 22.0104 4.66663Z" fill="#5BB974"/>
<path d="M17.8596 8.75732H9.31738V14.9534C9.31738 15.7511 9.96346 16.3972 10.7611 16.3972H19.3033V10.2011C19.3033 9.4034 18.6572 8.75732 17.8596 8.75732Z" fill="#00832D"/>
</svg>
