<svg width="48" height="48" viewBox="0 0 48 48" fill="none" xmlns="http://www.w3.org/2000/svg">
<path d="M9.21224 15.2462L11.4866 22.1856L16.3579 27.6231L23.5016 15.25L37.791 15.2481C34.9372 10.3169 29.6066 7 23.5016 7C17.3966 7 12.066 10.3169 9.21224 15.2462Z" fill="url(#paint0_linear_14564_902)"/>
<path d="M23.4997 40L28.371 34.5606L30.6435 27.6231H16.356L9.21036 15.2481C6.36786 20.185 6.15974 26.4606 9.21224 31.7481C12.2666 37.0356 17.8054 39.9944 23.4997 40Z" fill="url(#paint1_linear_14564_902)"/>
<path d="M37.791 15.25H23.5016L30.6454 27.625L23.5016 40C29.1979 39.9944 34.7366 37.0356 37.7891 31.7481C40.8416 26.4606 40.6335 20.185 37.791 15.25Z" fill="url(#paint2_linear_14564_902)"/>
<path d="M23.5016 31.7481C28.0569 31.7481 31.7497 28.0545 31.7497 23.4981C31.7497 18.9418 28.0569 15.2481 23.5016 15.2481C18.9463 15.2481 15.2535 18.9418 15.2535 23.4981C15.2535 28.0545 18.9463 31.7481 23.5016 31.7481Z" fill="white"/>
<path d="M23.5016 30.2012C27.2026 30.2012 30.2029 27.2002 30.2029 23.4981C30.2029 19.7961 27.2026 16.795 23.5016 16.795C19.8006 16.795 16.8004 19.7961 16.8004 23.4981C16.8004 27.2002 19.8006 30.2012 23.5016 30.2012Z" fill="#1A73E8"/>
<defs>
<linearGradient id="paint0_linear_14564_902" x1="9.21308" y1="17.3118" x2="37.7906" y2="17.3118" gradientUnits="userSpaceOnUse">
<stop stop-color="#D93025"/>
<stop offset="1" stop-color="#EA4335"/>
</linearGradient>
<linearGradient id="paint1_linear_14564_902" x1="25.2883" y1="38.9677" x2="10.9986" y2="14.2179" gradientUnits="userSpaceOnUse">
<stop stop-color="#1E8E3E"/>
<stop offset="1" stop-color="#34A853"/>
</linearGradient>
<linearGradient id="paint2_linear_14564_902" x1="35.4269" y1="15.2168" x2="21.1372" y2="39.9665" gradientUnits="userSpaceOnUse">
<stop stop-color="#FBBC04"/>
<stop offset="1" stop-color="#FCC934"/>
</linearGradient>
</defs>
</svg>
