<svg aria-hidden="true" width="48" height="48" viewBox="0 0 48 48" fill="none" xmlns="http://www.w3.org/2000/svg">
<path d="M11 13H38V35H11V13Z" fill="#0F9D58"/>
<path d="M30.3462 24.5385C31.2231 24.5385 31.9538 23.7692 31.9538 22.8462C31.9538 21.9231 31.2231 21.1538 30.3462 21.1538C29.4692 21.1538 28.7385 21.9231 28.7385 22.8462C28.7385 23.7692 29.4692 24.5385 30.3462 24.5385ZM30.3462 25.6154C28.5923 25.6154 26.6923 26.5385 26.6923 27.7692V29H34V27.7692C34 26.6923 32.1 25.6154 30.3462 25.6154ZM18.6538 24.5385C19.5308 24.5385 20.2615 23.7692 20.2615 22.8462C20.2615 21.9231 19.5308 21 18.6538 21C17.7769 21 17.0462 21.7692 17.0462 22.6923C17.0462 23.6154 17.7769 24.5385 18.6538 24.5385ZM18.6538 25.6154C16.9 25.6154 15 26.5385 15 27.7692V29H22.3077V27.7692C22.3077 26.6923 20.4077 25.6154 18.6538 25.6154Z" fill="#57BB8A"/>
<path d="M24 22.7143C25.1429 22.7143 26.1429 21.6143 26.1429 20.3571C26.1429 19.1 25.1429 18 24 18C22.8571 18 21.8571 19.1 21.8571 20.3571C21.8571 21.6143 22.8571 22.7143 24 22.7143ZM24 24.2857C21.5714 24.2857 19 25.7 19 27.4286V29H29V27.4286C29 25.7 26.4286 24.2857 24 24.2857Z" fill="#F7F7F7"/>
<path d="M28 33H34V35H28V33Z" fill="#F1F1F1"/>
<path d="M38.75 10H10.25C9.05 10 8 11.0316 8 12.2105V35.7895C8 36.9684 9.05 38 10.25 38H38.75C39.95 38 41 36.9684 41 35.7895V12.2105C41 11.0316 39.95 10 38.75 10ZM38 35.0526H11V12.9474H38V35.0526Z" fill="#F4B400"/>
<path opacity="0.2" d="M38.75 10H10.25C9.05 10 8 10.875 8 11.875V12C8 11 9.05 10.125 10.25 10.125H38.75C39.95 10.125 41 11 41 12V11.875C41 10.875 39.95 10 38.75 10Z" fill="white"/>
<path opacity="0.2" d="M38.75 37.8125H10.25C9.05 37.8125 8 36.5 8 35V35.1875C8 36.6875 9.05 38 10.25 38H38.75C39.95 38 41 36.6875 41 35.1875V35C41 36.5 39.95 37.8125 38.75 37.8125Z" fill="#BF360C"/>
<path d="M34.2308 35H28L30.7692 38H37L34.2308 35Z" fill="url(#paint0_linear_5_241)"/>
<path d="M38.75 10H10.25C9.05 10 8 11.0316 8 12.2105V35.7895C8 36.9684 9.05 38 10.25 38H38.75C39.95 38 41 36.9684 41 35.7895V12.2105C41 11.0316 39.95 10 38.75 10Z" fill="url(#paint1_radial_5_241)"/>
<defs>
<linearGradient id="paint0_linear_5_241" x1="32.487" y1="35.0417" x2="32.487" y2="38.0313" gradientUnits="userSpaceOnUse">
<stop stop-color="#BF360C" stop-opacity="0.2"/>
<stop offset="1" stop-color="#BF360C" stop-opacity="0.02"/>
</linearGradient>
<radialGradient id="paint1_radial_5_241" cx="0" cy="0" r="1" gradientUnits="userSpaceOnUse" gradientTransform="translate(9.12394 10.6553) scale(39.4139 38.7224)">
<stop stop-color="white" stop-opacity="0.1"/>
<stop offset="1" stop-color="white" stop-opacity="0"/>
</radialGradient>
</defs>
</svg>
