<svg aria-hidden="true" width="48" height="48" viewBox="0 0 48 48" fill="none" xmlns="http://www.w3.org/2000/svg">
<path d="M40.5 27.9C40.5 23.7 37.05 20.1 32.7 20.1H30.15C28.5 15.6 24.3 12.45 19.2 12.45C12.75 12.3 7.5 17.55 7.5 24C7.5 30.45 12.75 35.7 19.2 35.7H32.85C37.05 35.7 40.5 32.1 40.5 27.9Z" fill="#4285F4"/>
<path opacity="0.2" d="M19.2 12.6C24.3 12.6 28.65 15.75 30.15 20.25H32.7C36.9 20.25 40.35 23.7 40.5 27.9C40.5 27.9 40.5 27.9 40.5 27.75C40.5 23.4 37.05 19.95 32.7 19.95H30.15C28.5 15.45 24.3 12.3 19.2 12.3C12.75 12.3 7.5 17.55 7.5 24C7.5 24 7.5 24 7.5 24.15C7.5 17.7 12.75 12.6 19.2 12.6Z" fill="white"/>
<path opacity="0.2" d="M32.7 35.4H19.2C12.75 35.4 7.65 30.3 7.5 23.85C7.5 23.85 7.5 23.85 7.5 24C7.5 30.45 12.75 35.7 19.2 35.7H32.85C37.2 35.7 40.65 32.25 40.65 27.9C40.65 27.9 40.65 27.9 40.65 27.75C40.5 31.95 37.05 35.4 32.7 35.4Z" fill="#1A237E"/>
<path opacity="0.2" fill-rule="evenodd" clip-rule="evenodd" d="M27.6 30.9C27.75 31.05 27.75 31.65 27.45 31.8L27 32.4C26.7 32.7 26.25 32.7 25.95 32.4L22.5 29.1C21.6 29.7 20.4 30 19.2 30C15.9 30 13.05 27.3 13.05 24C13.05 24 13.05 24 13.05 24.15C13.05 27.6 15.75 30.3 19.2 30.3C20.4 30.3 21.6 30 22.5 29.25L25.95 32.7C26.25 33 26.7 33 27 32.7L27.6 32.1C27.9 31.65 27.9 31.2 27.6 30.9Z" fill="#1A237E"/>
<path fill-rule="evenodd" clip-rule="evenodd" d="M27.6 30.9L24.15 27.45C24.9 26.4 25.35 25.2 25.35 23.85C25.35 20.4 22.65 17.7 19.2 17.7C15.75 17.7 13.05 20.4 13.05 23.85C13.05 27.3 15.75 30 19.2 30C20.4 30 21.6 29.7 22.5 28.95L25.95 32.4C26.25 32.7 26.7 32.7 27 32.4L27.6 31.8C27.9 31.65 27.9 31.2 27.6 30.9ZM19.2 27.75C17.1 27.75 15.3 25.95 15.3 23.85C15.3 21.75 17.1 19.95 19.2 19.95C21.3 19.95 23.1 21.75 23.1 23.85C23.1 25.95 21.3 27.75 19.2 27.75Z" fill="#EEEEEE"/>
<path d="M24.6 21C25.05 21.9 25.35 22.8 25.35 23.85C25.35 25.2 24.9 26.4 24.15 27.45L27.6 30.9C27.9 31.2 27.9 31.65 27.6 31.95L27 32.4C26.7 32.7 26.25 32.7 25.95 32.4L22.5 29.1C21.6 29.7 20.4 30 19.2 30C17.7 30 16.5 29.55 15.45 28.65L22.35 35.55H32.85C34.65 35.55 36.3 34.95 37.65 33.9C37.5 33.9 24.6 21 24.6 21Z" fill="url(#paint0_linear_3_18)"/>
<path d="M40.5 27.9C40.5 23.7 37.05 20.1 32.7 20.1H30.15C28.5 15.6 24.3 12.45 19.2 12.45C12.75 12.3 7.5 17.55 7.5 24C7.5 30.45 12.75 35.7 19.2 35.7H32.85C37.05 35.7 40.5 32.1 40.5 27.9Z" fill="url(#paint1_linear_3_18)"/>
<defs>
<linearGradient id="paint0_linear_3_18" x1="14.8008" y1="19.6992" x2="31.4015" y2="36.2999" gradientUnits="userSpaceOnUse">
<stop stop-color="#1A237E" stop-opacity="0.2"/>
<stop offset="1" stop-color="#1A237E" stop-opacity="0"/>
</linearGradient>
<linearGradient id="paint1_linear_3_18" x1="12.1989" y1="14.9234" x2="34.1354" y2="36.8599" gradientUnits="userSpaceOnUse">
<stop stop-color="white" stop-opacity="0.1"/>
<stop offset="1" stop-color="white" stop-opacity="0"/>
</linearGradient>
</defs>
</svg>
