<svg aria-hidden="true" width="48" height="48" xmlns="http://www.w3.org/2000/svg"><g fill-rule="nonzero" fill="none"><path d="M8.843 35.348l1.575 2.72a3.714 3.714 0 001.35 1.35l5.625-9.736H6.143c0 .634.164 1.268.491 1.84l2.21 3.826z" fill="#0066DA"/><path d="M24 18.227l-5.625-9.736a3.714 3.714 0 00-1.35 1.35l-10.39 18a3.706 3.706 0 00-.492 1.84h11.25L24 18.228z" fill="#00AC47"/><path d="M24 18.227l5.625-9.736A3.596 3.596 0 0027.785 8h-7.57c-.654 0-1.288.184-1.84.49L24 18.228z" fill="#00832D"/><path d="M30.607 29.682H17.393l-5.625 9.736c.552.327 1.187.491 1.841.491h20.782c.654 0 1.289-.184 1.84-.49l-5.624-9.737z" fill="#2684FC"/><path d="M36.232 39.418a3.714 3.714 0 001.35-1.35l.654-1.125 3.13-5.42c.327-.573.49-1.207.49-1.841H30.628l5.605 9.736z" fill="#EA4335"/><path d="M36.17 18.84l-5.195-9a3.714 3.714 0 00-1.35-1.35L24 18.228l6.607 11.455h11.23c0-.634-.164-1.268-.492-1.841l-5.175-9z" fill="#FFBA00"/></g></svg>
