<svg width="32" height="32" viewBox="0 0 32 32" fill="none" xmlns="http://www.w3.org/2000/svg">
<g filter="url(#filter0_d_259_7602)">
<path d="M5.68415 8.73585C5.68415 6.6726 7.38076 5 9.47363 5H24.2105C26.3034 5 28 6.6726 28 8.73585V23.2642C28 25.3274 26.3034 27 24.2105 27H9.47363C7.38076 27 5.68415 25.3274 5.68415 23.2642V22.8491H5.26316C4.56554 22.8491 4 22.2915 4 21.6038V19.5283C4 18.8406 4.56554 18.283 5.26316 18.283H5.68415V13.6132H5.26316C4.56554 13.6132 4 13.0556 4 12.3679V10.2924C4 9.60465 4.56554 9.04712 5.26316 9.04712H5.68415V8.73585Z" fill="#498AF4"/>
<path d="M28 13.303V23.2642C28 25.3274 26.3034 27 24.2105 27H14.3632L10 22.7453L15.3684 17.6604L14.3684 16.5189L14.8421 14.2359L17.1053 13.4057L18.4211 14.2359L23.4737 9.25477L28 13.303Z" fill="#417FEC"/>
<path fill-rule="evenodd" clip-rule="evenodd" d="M23.8958 10.242C24.2452 9.89757 24.2452 9.33907 23.8958 8.99459C23.5464 8.65012 22.9798 8.65012 22.6304 8.99459L19.0632 12.5114C18.4339 12.1247 17.6907 11.9013 16.8947 11.9013C16.0713 11.9013 15.3045 12.1403 14.6618 12.5517L11.0536 8.99459C10.7042 8.65012 10.1377 8.65012 9.78829 8.99459C9.43887 9.33907 9.43887 9.89757 9.78829 10.242L13.4082 13.8107C13.016 14.4311 12.7894 15.1637 12.7894 15.9485C12.7894 16.7333 13.016 17.466 13.4082 18.0863L9.78829 21.655C9.43887 21.9994 9.43887 22.5579 9.78829 22.9024C10.1377 23.2469 10.7042 23.2469 11.0536 22.9024L14.6618 19.3453C15.3045 19.7567 16.0713 19.9957 16.8947 19.9957C17.6907 19.9957 18.4339 19.7723 19.0632 19.3856L22.6304 22.9024C22.9798 23.2469 23.5464 23.2469 23.8958 22.9024C24.2452 22.5579 24.2452 21.9994 23.8958 21.655L20.3402 18.1497C20.7575 17.5161 20.9999 16.7602 20.9999 15.9485C20.9999 15.1368 20.7575 14.3809 20.3402 13.7473L23.8958 10.242ZM16.8947 17.868C17.912 17.868 18.7368 17.055 18.7368 16.052C18.7368 15.049 17.912 14.236 16.8947 14.236C15.8773 14.236 15.0525 15.049 15.0525 16.052C15.0525 17.055 15.8773 17.868 16.8947 17.868Z" fill="#EEEEEE"/>
<path d="M25.3683 12.5757C25.8624 12.5757 26.263 12.9706 26.263 13.4578V18.1276C26.263 18.6148 25.8624 19.0097 25.3683 19.0097C24.8741 19.0097 24.4736 18.6148 24.4736 18.1276V13.4578C24.4736 12.9706 24.8741 12.5757 25.3683 12.5757Z" fill="#EEEEEE"/>
</g>
<defs>
<filter id="filter0_d_259_7602" x="3.0566" y="5" width="25.8868" height="23.8868" filterUnits="userSpaceOnUse" color-interpolation-filters="sRGB">
<feFlood flood-opacity="0" result="BackgroundImageFix"/>
<feColorMatrix in="SourceAlpha" type="matrix" values="0 0 0 0 0 0 0 0 0 0 0 0 0 0 0 0 0 0 127 0" result="hardAlpha"/>
<feOffset dy="0.943396"/>
<feGaussianBlur stdDeviation="0.471698"/>
<feComposite in2="hardAlpha" operator="out"/>
<feColorMatrix type="matrix" values="0 0 0 0 0 0 0 0 0 0 0 0 0 0 0 0 0 0 0.08 0"/>
<feBlend mode="normal" in2="BackgroundImageFix" result="effect1_dropShadow_259_7602"/>
<feBlend mode="normal" in="SourceGraphic" in2="effect1_dropShadow_259_7602" result="shape"/>
</filter>
</defs>
</svg>
