<svg aria-hidden="true" width="48" height="48" xmlns="http://www.w3.org/2000/svg"><g fill-rule="nonzero" fill="none"><path d="M33.75 41h-19.5A2.25 2.25 0 0112 38.75v-28.5A2.25 2.25 0 0114.25 8h13.5L36 16.25v22.5A2.25 2.25 0 0133.75 41z" fill="#7248B9"/><path fill="#56368A" d="M27.75 8L36 16.25h-8.25z"/><path fill="#FFF" d="M30.75 20.75h-9.375v1.875h9.375zM18.375 22.813a1.125 1.125 0 100-2.25 1.125 1.125 0 000 2.25zM30.75 25.25h-9.375v1.875h9.375zM18.375 27.313a1.125 1.125 0 100-2.25 1.125 1.125 0 000 2.25zM30.75 29.75h-9.375v1.875h9.375zM18.375 31.813a1.125 1.125 0 100-2.25 1.125 1.125 0 000 2.25z"/></g></svg>
