<svg aria-hidden="true" width="48" height="48" xmlns="http://www.w3.org/2000/svg" xmlns:xlink="http://www.w3.org/1999/xlink"><defs><path id="a" d="M0 0h48v48H0z"/></defs><g fill="none" fill-rule="evenodd"><mask id="b" fill="#fff"><use xlink:href="#a"/></mask><g mask="url(#b)"><path d="M10.25 36.125h5.25v-12.75L8 17.75v16.125a2.25 2.25 0 002.25 2.25z" fill="#4285F4" fill-rule="nonzero"/><path d="M33.5 36.125h5.25a2.25 2.25 0 002.25-2.25V17.75l-7.5 5.625v12.75z" fill="#34A853" fill-rule="nonzero"/><path d="M33.5 13.625v9.75L41 17.75v-3c0-2.78-3.174-4.369-5.4-2.7l-2.1 1.575z" fill="#FBBC04" fill-rule="nonzero"/><path fill="#EA4335" d="M15.5 23.375v-9.75l9 6.75 9-6.75v9.75l-9 6.75z"/><path d="M8 14.75v3l7.5 5.625v-9.75l-2.1-1.575c-2.226-1.669-5.4-.08-5.4 2.7z" fill="#C5221F" fill-rule="nonzero"/></g></g></svg>
