<svg width="48" height="48" xmlns="http://www.w3.org/2000/svg"><g fill="none" fill-rule="evenodd"><path d="M41.28 24.41c0-1.277-.115-2.505-.327-3.683H24v6.971h9.687c-.425 2.242-1.702 4.14-3.616 5.417v4.532h5.842c3.403-3.142 5.367-7.756 5.367-13.238z" fill="#4285F4" fill-rule="nonzero"/><path d="M24 42c4.86 0 8.935-1.604 11.913-4.353l-5.842-4.532c-1.604 1.08-3.65 1.734-6.071 1.734-4.68 0-8.656-3.158-10.08-7.413H7.93v4.648C10.894 37.958 16.965 42 24 42z" fill="#34A853" fill-rule="nonzero"/><path d="M13.92 27.42a10.786 10.786 0 01-.573-3.42c0-1.195.213-2.34.573-3.42v-4.647H7.93A17.778 17.778 0 006 24c0 2.913.704 5.645 1.93 8.067l4.665-3.632 1.325-1.015z" fill="#FBBC05" fill-rule="nonzero"/><path d="M24 13.167c2.65 0 5.007.917 6.89 2.684l5.154-5.155C32.918 7.784 28.86 6 24 6c-7.036 0-13.107 4.042-16.07 9.933l5.99 4.647c1.424-4.255 5.4-7.413 10.08-7.413z" fill="#EA4335" fill-rule="nonzero"/><path d="M6 6h36v36H6z"/></g></svg> 
