<svg aria-hidden="true" width="48" height="48" viewBox="0 0 48 48" fill="none" xmlns="http://www.w3.org/2000/svg">
<path d="M18.375 20.0625C20.8603 20.0625 22.875 18.0478 22.875 15.5625C22.875 13.0772 20.8603 11.0625 18.375 11.0625C15.8897 11.0625 13.875 13.0772 13.875 15.5625C13.875 18.0478 15.8897 20.0625 18.375 20.0625Z" fill="#4285F4"/>
<path d="M29.625 20.0625C32.1103 20.0625 34.125 18.0478 34.125 15.5625C34.125 13.0772 32.1103 11.0625 29.625 11.0625C27.1397 11.0625 25.125 13.0772 25.125 15.5625C25.125 18.0478 27.1397 20.0625 29.625 20.0625Z" fill="#4285F4"/>
<path d="M27.375 31.125V30C27.375 27.3412 25.7962 24.9656 23.9062 23.3831C22.0163 24.9656 20.4375 27.3412 20.4375 30V31.125C20.4375 31.9537 21.4837 32.625 22.3125 32.625H25.5C26.3288 32.625 27.375 31.9537 27.375 31.125Z" fill="#1967D2"/>
<path d="M29.4375 21.375C27.3319 21.375 25.4044 22.1306 23.9062 23.3831C25.7962 24.9656 27 27.3412 27 30V31.125C27 31.9538 26.3288 32.625 25.5 32.625H36.5625C37.3913 32.625 38.0625 31.9538 38.0625 31.125V30C38.0625 25.2356 34.2019 21.375 29.4375 21.375Z" fill="#4285F4"/>
<path d="M20.8125 31.125V30C20.8125 27.3412 22.0163 24.9656 23.9062 23.3831C22.4081 22.1306 20.4806 21.375 18.375 21.375C13.6106 21.375 9.75 25.2356 9.75 30V36.6581C9.75 37.6612 10.9612 38.1619 11.67 37.4531L16.5 32.625H22.3125C21.4837 32.625 20.8125 31.9537 20.8125 31.125Z" fill="#4285F4"/>
</svg>
