<svg aria-hidden="true" width="48" height="48" viewBox="0 0 48 48" fill="none" xmlns="http://www.w3.org/2000/svg">
<path d="M33.1625 29.3776V28.4168V27.09V20.8449V19.5181L34.1848 17.3906L39.2962 13.3416C39.9777 12.7697 41 13.2501 41 14.1423V33.4952C41 34.3874 39.955 34.8678 39.2735 34.2959L33.1625 29.3776Z" fill="#00AC47"/>
<path d="M16.25 10.4125L8 18.6625H16.25V10.4125Z" fill="#FE2C25"/>
<path d="M16.25 18.6625H8V29.3875H16.25V18.6625Z" fill="#2684FC"/>
<path d="M8 29.3875V34.8875C8 36.4 9.2375 37.6375 10.75 37.6375H16.25V29.3875H8Z" fill="#0066DA"/>
<path d="M34.1938 13.131C34.1938 11.6358 32.9826 10.4125 31.5022 10.4125H26.1191H16.25V18.6625H26.3563V24.025L34.1938 23.7782V13.131Z" fill="#FFBA00"/>
<path d="M26.3563 29.3875H16.25V37.6375H26.1191H31.5022C32.9826 37.6375 34.1938 36.416 34.1938 34.923V24.025H26.3563V29.3875Z" fill="#00AC47"/>
<path d="M34.1937 17.425V30.2125L26.3562 24.025L34.1937 17.425Z" fill="#00832D"/>
</svg>
