<svg width="64" height="64" viewBox="0 0 64 64" fill="none" xmlns="http://www.w3.org/2000/svg">
<g clip-path="url(#clip0_246_673)">
<path d="M31.9971 14.6667C19.4795 14.6667 9.33301 25.1597 9.33301 38.1092V49.3334H13.5116V48.2148C13.5116 42.9629 17.6252 38.7051 22.7024 38.7051C27.7795 38.7051 31.8932 42.9629 31.8932 48.2148V49.3334H36.0718V48.2148C36.0718 40.5767 30.0857 34.3877 22.7024 34.3877C19.8275 34.3877 17.1656 35.3248 14.9841 36.9256C17.2669 32.2344 21.9648 29.0139 27.39 29.0139C35.0538 29.0139 41.2684 35.444 41.2684 43.3692V49.3334H45.447V43.3692C45.447 33.0551 37.3625 24.6911 27.39 24.6911C22.905 24.6911 18.8043 26.3812 15.6463 29.1818C18.7472 23.1174 24.9047 18.9869 31.9997 18.9869C42.2111 18.9869 50.4878 27.5486 50.4878 38.1092V49.3334H54.6663V38.1092C54.6637 25.1597 44.5172 14.6667 31.9971 14.6667Z" fill="black"/>
</g>
<defs>
<clipPath id="clip0_246_673">
<rect width="64" height="64" fill="white"/>
</clipPath>
</defs>
</svg>
