<svg aria-hidden="true" width="48" height="48" xmlns="http://www.w3.org/2000/svg"><g fill-rule="nonzero" fill="none"><path d="M29.625 20.75H16.5v10.125h15V20.75h-1.875zm0 8.25h-11.25v-6.375h11.25V29z" fill="#FFF"/><path d="M33.75 41h-19.5A2.25 2.25 0 0112 38.75v-28.5A2.25 2.25 0 0114.25 8h13.5L36 16.25v22.5A2.25 2.25 0 0133.75 41z" fill="#00AC47"/><path fill="#00832D" d="M27.75 8L36 16.25h-8.25z"/><path d="M29.625 20.75H16.5v10.875h15V20.75h-1.875zm-11.25 1.875h4.688v2.625h-4.688v-2.625zm0 7.125v-2.625h4.688v2.625h-4.688zm11.25 0h-4.688v-2.625h4.688v2.625zm0-4.5h-4.688v-2.625h4.688v2.625z" fill="#FFF"/></g></svg>
