<svg aria-hidden="true" width="48" height="48" viewBox="0 0 48 48" fill="none" xmlns="http://www.w3.org/2000/svg">
<g clip-path="url(#clip0_5_555)">
<mask id="mask0_5_555" style="mask-type:luminance" maskUnits="userSpaceOnUse" x="6" y="6" width="36" height="36">
<path d="M42 6H6V42H42V6Z" fill="white"/>
</mask>
<g mask="url(#mask0_5_555)">
<mask id="mask1_5_555" style="mask-type:luminance" maskUnits="userSpaceOnUse" x="9" y="7" width="30" height="34">
<path d="M38.25 21.75C38.25 13.95 31.8 7.5 24 7.5C16.2 7.5 9.75 13.95 9.75 21.75C9.75 29.25 16.5 35.25 24 35.25V40.5C32.7 36.15 38.25 29.1 38.25 21.75Z" fill="white"/>
</mask>
<g mask="url(#mask1_5_555)">
<path d="M38.25 21.75C38.25 13.95 31.8 7.5 24 7.5C16.2 7.5 9.75 13.95 9.75 21.75C9.75 29.25 16.5 35.25 24 35.25V40.5C32.7 36.15 38.25 29.1 38.25 21.75Z" fill="#03A9F4"/>
<path d="M37.65 25.8L27.3 15.45C28.05 16.2 28.5 17.25 28.5 18.45C28.5 19.5 28.05 20.4 27.45 21C27.45 21 26.85 21.6 26.4 22.05C25.65 22.8 25.2 23.7 25.2 24.45H22.8L24.3 25.95C24.9 26.1 25.5 26.7 25.5 27.45C25.5 28.35 24.9 28.95 24 28.95C23.55 28.95 23.25 28.8 22.95 28.5L30.6 36.15C34.2 33.15 36.6 29.55 37.65 25.8Z" fill="url(#paint0_linear_5_555)"/>
<path d="M25.65 19.95C26.1 19.5 26.25 19.05 26.25 18.3C26.25 17.1 25.2 16.05 24 16.05C22.8 16.05 21.75 17.1 21.75 18.3H19.5L23.4 22.2C23.7 21.9 23.85 21.45 24.15 21.3L25.65 19.95Z" fill="url(#paint1_linear_5_555)"/>
<path d="M24 7.65C31.8 7.65 38.25 14.1 38.25 21.9V21.75C38.25 13.95 31.8 7.5 24 7.5C16.2 7.5 9.75 13.95 9.75 21.75C9.75 21.75 9.75 21.75 9.75 21.9C9.75 13.95 16.2 7.65 24 7.65Z" fill="white" fill-opacity="0.2"/>
<path d="M38.25 21.75C38.1 28.95 32.55 36 24 40.35V40.5C32.7 36.15 38.25 29.1 38.25 21.75ZM24 35.25V35.1C16.5 35.1 9.75 29.1 9.75 21.75C9.75 21.75 9.75 21.75 9.75 21.9C9.75 29.25 16.5 35.25 24 35.25Z" fill="#263238" fill-opacity="0.2"/>
<path d="M38.25 21.75C38.25 13.95 31.8 7.5 24 7.5C16.2 7.5 9.75 13.95 9.75 21.75C9.75 29.25 16.5 35.25 24 35.25V40.5C32.7 36.15 38.25 29.1 38.25 21.75Z" fill="url(#paint2_radial_5_555)"/>
<path d="M24 13.8C21.45 13.8 19.5 15.75 19.5 18.3H21.75C21.75 17.1 22.8 16.05 24 16.05C25.2 16.05 26.25 17.1 26.25 18.3C26.25 18.9 25.95 19.5 25.65 19.95L24.3 21.3C23.55 22.05 22.95 23.1 22.95 24.3H25.35C25.35 23.55 25.8 22.65 26.55 21.9C27 21.45 27.6 20.85 27.6 20.85C28.2 20.25 28.65 19.35 28.65 18.3C28.5 15.9 26.55 13.8 24 13.8Z" fill="#EEEEEE"/>
<path d="M24 28.8C24.8284 28.8 25.5 28.1284 25.5 27.3C25.5 26.4716 24.8284 25.8 24 25.8C23.1716 25.8 22.5 26.4716 22.5 27.3C22.5 28.1284 23.1716 28.8 24 28.8Z" fill="#EEEEEE"/>
<path opacity="0.2" d="M25.65 20.1C26.1 19.65 26.25 19.2 26.25 18.45C26.25 18.45 26.25 18.45 26.25 18.3C26.25 18.9 25.95 19.35 25.65 19.8L24.3 21.15C23.55 21.9 22.95 22.95 22.95 24.15C22.95 22.95 23.7 22.05 24.3 21.3L25.65 20.1Z" fill="white"/>
<path opacity="0.2" d="M24 16.2C22.8 16.2 21.75 17.25 21.75 18.45H19.5V18.6H21.75C21.75 17.4 22.8 16.35 24 16.35C25.2 16.35 26.25 17.25 26.25 18.45C26.25 18.45 26.25 18.45 26.25 18.3C26.25 17.1 25.2 16.2 24 16.2ZM27.45 20.85C27.45 20.85 26.85 21.45 26.4 21.9C25.65 22.65 25.2 23.55 25.2 24.3H22.8V24.45H25.2C25.2 23.7 25.65 22.8 26.4 22.05C26.85 21.6 27.45 21 27.45 21C28.05 20.4 28.5 19.5 28.5 18.6V18.45C28.5 19.35 28.05 20.25 27.45 20.85Z" fill="#263238"/>
<path opacity="0.2" d="M24 14.1C26.4 14.1 28.5 16.05 28.5 18.45C28.5 15.9 26.55 13.95 24 13.95C21.45 13.95 19.5 15.9 19.5 18.45C19.65 16.05 21.6 14.1 24 14.1ZM24 26.1C24.75 26.1 25.5 26.7 25.5 27.45C25.5 27.45 25.5 27.45 25.5 27.3C25.5 26.4 24.9 25.8 24 25.8C23.1 25.8 22.5 26.4 22.5 27.3C22.5 27.3 22.5 27.3 22.5 27.45C22.5 26.7 23.25 26.1 24 26.1Z" fill="white"/>
<path opacity="0.2" d="M24 28.8C23.25 28.8 22.5 28.2 22.5 27.45C22.5 27.45 22.5 27.45 22.5 27.6C22.5 28.5 23.1 29.1 24 29.1C24.9 29.1 25.5 28.5 25.5 27.6C25.5 27.6 25.5 27.6 25.5 27.45C25.5 28.2 24.75 28.8 24 28.8Z" fill="#263238"/>
</g>
</g>
</g>
<defs>
<linearGradient id="paint0_linear_5_555" x1="20.5549" y1="17.3141" x2="35.5399" y2="32.2989" gradientUnits="userSpaceOnUse">
<stop stop-color="#263238" stop-opacity="0.2"/>
<stop offset="1" stop-color="#263238" stop-opacity="0.02"/>
</linearGradient>
<linearGradient id="paint1_linear_5_555" x1="21.4093" y1="16.4601" x2="36.3941" y2="31.4451" gradientUnits="userSpaceOnUse">
<stop stop-color="#263238" stop-opacity="0.2"/>
<stop offset="1" stop-color="#263238" stop-opacity="0.02"/>
</linearGradient>
<radialGradient id="paint2_radial_5_555" cx="0" cy="0" r="1" gradientUnits="userSpaceOnUse" gradientTransform="translate(13.9631 11.6719) scale(28.8703)">
<stop stop-color="white" stop-opacity="0.1"/>
<stop offset="1" stop-color="white" stop-opacity="0"/>
</radialGradient>
<clipPath id="clip0_5_555">
<rect width="36" height="36" fill="white" transform="translate(6 6)"/>
</clipPath>
</defs>
</svg>
