<svg aria-hidden="true" xmlns="http://www.w3.org/2000/svg" width="65" height="65" viewBox="0 0 65 65" fill="none"><g clip-path="url(#clip0_6439_7988)"><path d="M32.9115 61.4674C49.1118 61.4674 62.2448 48.3345 62.2448 32.1341C62.2448 15.9338 49.1118 2.80078 32.9115 2.80078C16.7111 2.80078 3.57812 15.9338 3.57812 32.1341C3.57812 48.3345 16.7111 61.4674 32.9115 61.4674Z" fill="white"/><path d="M45.1583 28.8877L48.245 27.1343L50.3217 23.7243C49.7017 22.441 48.5783 19.4677 48.5783 19.4677C48.5783 19.4677 46.355 18.1843 45.365 17.3477L42.245 19.1343L40.625 22.0877C41.625 22.8577 42.5783 25.801 42.5783 25.801C42.5783 25.801 44.765 27.401 45.1583 28.8877Z" fill="#0066DA"/><path d="M45.1581 28.8874C45.4315 29.9241 45.5781 31.0108 45.5781 32.1341C45.5781 39.1308 39.9081 44.8008 32.9115 44.8008C25.9148 44.8008 20.2448 39.1308 20.2448 32.1341C20.2448 25.1374 25.9148 19.4674 32.9115 19.4674C35.8148 19.4674 38.4881 20.4474 40.6248 22.0874L45.3648 17.3474C41.9981 14.5141 37.6548 12.8008 32.9115 12.8008C22.2348 12.8008 13.5781 21.4574 13.5781 32.1341C13.5781 42.8108 22.2348 51.4674 32.9115 51.4674C43.5881 51.4674 52.2448 42.8108 52.2448 32.1341C52.2448 29.1208 51.5548 26.2641 50.3215 23.7241L45.1581 28.8874Z" fill="#2684FC"/><path d="M40.623 22.0859L32.9263 29.7826L30.0063 26.8626C29.2263 26.0826 27.9597 26.0826 27.1763 26.8626L24.1796 29.8593C23.3896 30.6493 23.3996 31.9326 24.203 32.7126L31.023 39.3093C32.0696 40.3226 33.733 40.3059 34.763 39.2793L45.153 28.8893C44.4296 26.1459 42.8063 23.7693 40.623 22.0859Z" fill="#2684FC"/><path d="M50.3194 23.7232L53.826 20.2165C54.606 19.4365 54.606 18.1698 53.826 17.3865L50.9894 14.5498C50.2094 13.7698 48.9427 13.7698 48.1594 14.5498L45.3594 17.3498C47.4294 19.0932 49.1294 21.2598 50.3194 23.7232Z" fill="#2684FC"/></g><defs><clipPath id="clip0_6439_7988"><rect width="64" height="64" fill="white" transform="translate(0.914062 0.132812)"/></clipPath></defs></svg>
